<?xml version="1.0" standalone="no"?>
<!DOCTYPE svg PUBLIC "-//W3C//DTD SVG 20010904//EN"
 "http://www.w3.org/TR/2001/REC-SVG-20010904/DTD/svg10.dtd">
<svg version="1.0" xmlns="http://www.w3.org/2000/svg"
 width="500.000000pt" height="500.000000pt" viewBox="0 0 500.000000 500.000000"
 preserveAspectRatio="xMidYMid meet">

<g transform="translate(0.000000,500.000000) scale(0.100000,-0.100000)"
fill="#000000" stroke="none">
<path d="M2385 4494 c-75 -6 -274 -33 -325 -46 -167 -40 -301 -88 -445 -159
-104 -51 -115 -58 -311 -190 -112 -75 -333 -302 -435 -447 -347 -493 -453
-1114 -290 -1695 16 -57 53 -161 81 -230 198 -482 620 -897 1100 -1083 422
-163 870 -185 1297 -63 580 167 1065 603 1293 1165 23 54 47 121 55 149 7 27
21 75 29 105 43 152 71 415 62 580 -29 515 -225 967 -566 1311 -266 267 -544
433 -888 530 -185 52 -482 85 -657 73z m348 -594 c308 -45 629 -226 842 -475
113 -131 237 -347 271 -469 44 -157 53 -201 64 -306 33 -305 -32 -606 -186
-867 -129 -218 -296 -382 -529 -519 -263 -155 -647 -220 -955 -160 -176 34
-306 84 -466 178 -141 83 -241 167 -358 302 -50 58 -136 178 -136 191 0 3 -11
22 -24 43 -98 157 -176 456 -176 682 0 160 51 421 105 535 7 17 23 50 34 75
81 178 250 387 411 510 321 244 694 339 1103 280z"/>
<path d="M2310 3865 c-317 -48 -556 -167 -780 -386 -323 -317 -466 -772 -385
-1228 50 -281 185 -534 395 -740 317 -311 761 -445 1213 -366 324 56 634 245
832 505 27 36 52 67 55 70 24 19 133 239 164 329 94 271 96 616 4 886 -48 143
-128 299 -190 373 -15 18 -28 36 -28 41 0 14 -184 195 -246 242 -241 183 -498
274 -804 284 -89 3 -168 -1 -230 -10z m465 -74 c341 -73 629 -270 833 -570 69
-101 154 -304 184 -440 28 -126 31 -424 5 -541 -60 -274 -169 -473 -367 -670
-156 -157 -266 -228 -470 -307 -160 -62 -254 -78 -460 -78 -283 1 -456 48
-688 188 -191 116 -366 299 -476 502 -111 203 -164 438 -153 685 12 277 102
522 274 750 46 61 187 201 248 246 188 138 405 226 631 254 105 13 335 3 439
-19z"/>
<path d="M2506 3658 c-10 -87 -8 -118 9 -118 11 0 15 11 15 36 l0 35 43 -3
c36 -3 42 -6 45 -28 10 -80 27 -59 36 43 6 64 4 77 -8 77 -9 0 -16 -11 -18
-27 -3 -25 -7 -28 -45 -31 l-43 -3 0 35 c0 59 -26 45 -34 -16z"/>
<path d="M2272 3684 c-40 -18 -32 -84 11 -84 42 0 68 -12 65 -29 -2 -11 -15
-16 -43 -17 -43 0 -58 -18 -23 -27 43 -11 108 18 108 48 0 20 -33 43 -72 50
-22 4 -38 13 -38 21 0 14 7 17 45 18 11 1 22 6 25 11 5 11 -56 18 -78 9z"/>
<path d="M2015 3603 c-39 -21 -45 -30 -45 -74 0 -47 33 -79 82 -79 85 0 121
91 57 144 -35 30 -52 32 -94 9z m79 -35 c21 -29 20 -57 -1 -80 -33 -37 -93 -8
-93 46 0 50 66 74 94 34z"/>
<path d="M2961 3581 c-27 -27 -27 -32 9 -66 52 -50 32 -88 -23 -45 -28 22 -51
26 -45 8 5 -15 47 -45 75 -53 15 -4 28 0 42 14 27 27 27 34 -9 74 -16 19 -30
40 -30 46 0 16 36 13 50 -4 13 -16 40 -20 40 -7 0 15 -34 40 -62 47 -19 5 -32
1 -47 -14z"/>
<path d="M1800 3478 c0 -7 14 -31 30 -52 33 -43 38 -73 15 -82 -16 -6 -21 -34
-6 -34 16 0 61 41 61 56 0 21 -72 123 -87 124 -7 0 -13 -6 -13 -12z"/>
<path d="M3155 3423 c-14 -15 -25 -38 -25 -51 0 -27 26 -82 40 -82 5 0 15 -7
24 -15 13 -13 19 -13 51 6 42 25 55 46 55 89 0 73 -94 107 -145 53z m110 -27
c17 -26 11 -50 -19 -75 -13 -11 -17 -10 -22 3 -8 20 -24 21 -24 1 0 -13 -4
-14 -20 -5 -25 13 -26 56 -3 82 24 26 69 23 88 -6z"/>
<path d="M2320 3351 c-530 -108 -835 -690 -622 -1187 51 -117 100 -192 181
-274 164 -167 387 -260 621 -260 418 0 779 299 855 709 52 284 -34 567 -235
771 -210 213 -504 301 -800 241z m-69 -555 c54 -54 99 -104 99 -110 0 -5 -58
48 -130 119 -71 72 -130 134 -130 139 0 11 25 -12 161 -148z m678 117 c-52
-61 -222 -223 -227 -218 -6 6 240 254 252 255 4 0 -7 -17 -25 -37z m-399 -13
c0 -5 -4 -10 -10 -10 -5 0 -10 5 -10 10 0 6 5 10 10 10 6 0 10 -4 10 -10z
m-120 -40 c0 -5 -2 -10 -4 -10 -3 0 -8 5 -11 10 -3 6 -1 10 4 10 6 0 11 -4 11
-10z m799 -67 c-7 -10 -29 -33 -49 -51 l-35 -34 38 6 c46 6 41 -7 -14 -34 -44
-23 -51 -40 -16 -41 l22 0 -22 -9 c-40 -16 -28 -33 18 -26 46 7 45 -5 -1 -24
-16 -7 -30 -16 -30 -21 0 -5 -9 -9 -21 -9 -28 0 -19 -23 12 -30 15 -4 20 -8
12 -13 -7 -4 -24 -5 -38 -1 -19 5 -25 2 -25 -9 0 -12 -8 -15 -35 -10 -24 4
-35 2 -35 -7 0 -7 -8 -10 -20 -7 -13 3 -20 0 -20 -9 0 -12 -4 -12 -21 -4 -11
7 -27 9 -34 6 -18 -6 -27 7 -19 28 5 12 15 15 45 10 21 -4 39 -3 39 2 0 5 18
18 40 28 26 12 39 25 36 33 -3 8 5 18 20 25 13 6 23 17 20 24 -2 6 1 17 7 23
8 8 6 16 -7 30 -26 29 -16 44 58 85 36 20 68 41 71 46 3 6 9 10 12 10 3 0 -1
-8 -8 -17z m-1260 -90 c6 -11 2 -22 -12 -36 -16 -16 -17 -21 -6 -28 12 -8 12
-10 0 -18 -11 -7 -7 -13 18 -26 21 -10 31 -22 27 -31 -3 -9 3 -16 19 -20 14
-3 25 -10 25 -15 0 -5 7 -9 15 -9 8 0 15 -4 15 -10 0 -14 43 -13 57 1 8 8 14
5 23 -11 6 -12 10 -23 8 -24 -2 -1 -18 -7 -36 -13 -26 -9 -34 -9 -38 1 -3 8
-15 11 -31 8 -19 -4 -24 -2 -18 8 6 10 0 11 -29 6 -29 -6 -36 -4 -36 9 0 11
-11 15 -37 16 -32 1 -34 2 -14 8 31 8 40 31 12 31 -12 0 -21 4 -21 10 0 5 -16
16 -35 24 -46 20 -44 28 5 20 27 -5 40 -3 40 5 0 6 -7 14 -15 17 -14 6 -13 8
2 19 15 11 13 15 -24 34 -55 28 -62 41 -18 34 38 -6 50 11 15 22 -11 3 -29 19
-40 35 -21 30 -21 30 49 -11 39 -22 75 -48 80 -56z m114 -18 c34 -9 35 -25 2
-25 -14 0 -25 4 -25 10 0 5 -11 12 -24 16 -14 3 -32 14 -42 25 -16 18 -15 18
23 -1 22 -10 51 -22 66 -25z m971 20 c-10 -8 -27 -15 -37 -15 -11 0 -21 -9
-24 -20 -6 -24 -13 -25 -39 -5 -15 11 -16 15 -4 15 8 0 38 11 65 24 53 25 71
26 39 1z m13 -40 c9 -24 -1 -27 -15 -5 -8 13 -8 20 -2 20 6 0 13 -7 17 -15z
m-1067 -4 c0 -6 -4 -13 -10 -16 -5 -3 -10 1 -10 9 0 9 5 16 10 16 6 0 10 -4
10 -9z m244 -21 c115 -31 141 -44 117 -60 -9 -5 -19 -3 -28 6 -17 17 -37 18
-65 3 -17 -9 -20 -9 -16 3 7 18 -44 39 -63 27 -22 -14 -49 -11 -43 5 4 10 -2
12 -20 9 -29 -6 -32 1 -13 22 16 18 5 19 131 -15z m702 8 l19 -21 -34 6 c-28
6 -32 4 -27 -9 5 -13 1 -15 -21 -9 -43 11 -58 11 -56 -1 1 -7 -6 -10 -17 -7
-16 4 -19 2 -14 -12 6 -15 4 -15 -14 -4 -17 11 -26 10 -49 -1 -15 -7 -32 -12
-38 -10 -5 1 -27 2 -47 1 -40 -2 -41 -1 -32 23 8 20 24 21 24 1 0 -12 5 -13
28 -3 30 12 231 67 248 68 6 0 19 -10 30 -22z m-898 -36 c2 -7 -5 -12 -17 -12
-14 0 -19 5 -14 15 6 17 25 15 31 -3z m993 2 c11 -14 10 -15 -11 -12 -13 1
-25 9 -28 16 -5 17 23 15 39 -4z m-890 -45 c10 -10 16 -19 12 -20 -5 0 -27 -2
-50 -4 -45 -4 -55 6 -25 25 13 9 10 9 -18 4 -32 -6 -33 -5 -20 10 17 22 72 14
101 -15z m833 25 c25 -10 19 -26 -6 -19 -19 6 -21 5 -10 -6 20 -21 14 -25 -30
-23 -24 2 -47 3 -52 3 -10 1 32 36 54 44 21 8 26 8 44 1z m-456 -44 c2 -13 -2
-29 -10 -34 -8 -6 -17 -19 -21 -28 -9 -24 -27 -23 -27 2 0 24 -25 26 -47 4
-21 -21 -39 -3 -24 24 6 10 8 22 5 25 -3 3 4 11 16 17 16 9 25 9 33 1 16 -16
37 -13 37 5 0 25 35 12 38 -16z m-329 -21 c-13 -26 -23 -18 -14 10 3 12 11 19
16 16 5 -4 5 -14 -2 -26z m61 17 c0 -21 -21 -31 -30 -15 -5 7 -6 17 -4 21 9
14 34 9 34 -6z m430 -7 c0 -10 -12 -11 -34 -3 -9 3 -14 10 -11 14 6 10 45 1
45 -11z m130 0 c0 -24 -23 -21 -28 4 -2 10 3 17 12 17 10 0 16 -9 16 -21z m46
1 c0 -24 -3 -24 -22 -6 -11 11 -11 16 -1 19 21 9 23 8 23 -13z m-574 -12 c-7
-7 -12 -8 -12 -2 0 6 3 14 7 17 3 4 9 5 12 2 2 -3 -1 -11 -7 -17z m478 1 c0
-6 -4 -7 -10 -4 -5 3 -10 11 -10 16 0 6 5 7 10 4 6 -3 10 -11 10 -16z m-112
-32 c2 -10 -3 -17 -12 -17 -8 0 -20 -9 -26 -20 -12 -23 -19 -24 -40 -10 -13 9
-9 15 20 40 37 32 53 34 58 7z m-417 -7 c12 0 17 -5 14 -10 -4 -6 -15 -10 -25
-8 -10 2 -28 -6 -39 -16 -19 -17 -21 -17 -16 -3 3 9 7 24 10 33 3 10 11 14 21
10 9 -3 25 -6 35 -6z m626 -5 c8 -21 -3 -30 -20 -17 -8 7 -17 9 -20 6 -3 -4
-14 -3 -24 1 -15 7 -13 9 12 15 45 11 45 11 52 -5z m-94 -2 c-7 -2 -19 -2 -25
0 -7 3 -2 5 12 5 14 0 19 -2 13 -5z m-313 -61 c0 -12 -159 -167 -165 -161 -5
6 145 167 158 168 4 1 7 -2 7 -7z m126 -19 c-10 -10 -19 5 -10 18 6 11 8 11
12 0 2 -7 1 -15 -2 -18z m-24 -17 c3 -14 1 -31 -3 -38 -13 -21 -40 12 -33 40
8 29 30 28 36 -2z m107 -28 c37 -39 53 -78 33 -78 -12 0 -48 43 -66 79 -29 55
-20 55 33 -1z m-223 -24 c-34 -52 -45 -64 -57 -64 -18 0 -6 25 36 73 46 54 58
48 21 -9z m192 -13 c12 -21 22 -44 22 -50 0 -21 -20 -1 -37 37 -9 20 -19 40
-21 45 -2 4 0 7 5 7 5 0 19 -17 31 -39z m152 -54 c0 -4 -13 1 -30 13 -16 12
-30 29 -30 38 0 12 8 9 30 -13 17 -16 30 -33 30 -38z m-336 26 c-7 -32 -34
-66 -34 -44 0 12 31 71 37 71 2 0 0 -12 -3 -27z m176 -50 c0 -7 -4 -13 -8 -13
-12 0 -32 46 -24 55 8 8 32 -24 32 -42z m-140 25 c0 -9 3 -8 10 2 15 24 24 3
12 -32 -10 -32 -10 -32 -18 -9 -7 23 -8 23 -20 6 -19 -26 -30 -10 -14 20 14
27 30 33 30 13z m60 -23 c0 -19 -4 -35 -10 -35 -5 0 -10 16 -10 35 0 19 5 35
10 35 6 0 10 -16 10 -35z m300 10 c0 -15 -15 -35 -26 -35 -9 0 -14 11 -14 30
0 28 2 30 20 20 11 -6 20 -12 20 -15z m-573 -1 c1 -5 -2 -16 -7 -24 -8 -13
-12 -13 -27 3 -16 15 -16 19 -3 27 17 11 32 8 37 -6z m300 -21 c-3 -10 -5 -4
-5 12 0 17 2 24 5 18 2 -7 2 -21 0 -30z m-356 -63 c6 0 7 -4 4 -10 -4 -6 -13
-5 -24 2 -14 9 -16 14 -7 24 9 9 12 9 14 -2 2 -8 8 -14 13 -14z m676 -2 c-3
-8 -6 -5 -6 6 -1 11 2 17 5 13 3 -3 4 -12 1 -19z m-316 8 c0 0 4 -42 8 -92 9
-118 25 -144 85 -144 29 0 52 7 70 21 15 12 30 19 33 15 11 -10 -29 -46 -113
-102 -44 -29 -89 -63 -99 -74 -23 -26 -27 -25 -61 8 -16 16 -57 45 -90 65 -53
32 -134 106 -134 123 0 3 20 -9 44 -26 35 -26 51 -31 87 -28 39 3 46 7 61 38
13 24 18 59 18 111 0 42 2 78 5 81 5 4 83 8 86 4z m-414 -48 c-3 -8 -6 -5 -6
6 -1 11 2 17 5 13 3 -3 4 -12 1 -19z m77 -34 c9 -3 16 -15 16 -26 0 -28 -34
-19 -38 10 -4 24 -2 25 22 16z m614 -16 c-4 -29 -38 -38 -38 -10 0 19 11 29
33 31 5 1 7 -9 5 -21z m-54 -73 c-4 -8 -11 -15 -16 -15 -6 0 -5 6 2 15 7 8 14
15 16 15 2 0 1 -7 -2 -15z"/>
<path d="M3389 3227 c-55 -39 -59 -45 -59 -83 0 -34 35 -74 65 -74 25 0 126
62 122 74 -7 20 -25 16 -62 -14 -42 -34 -66 -37 -89 -14 -26 25 -19 41 34 81
28 20 50 41 50 45 0 19 -21 14 -61 -15z"/>
<path d="M1498 3169 c-16 -21 -28 -43 -28 -48 0 -5 30 -27 68 -50 l67 -41 17
23 c48 63 48 105 0 49 -20 -24 -31 -30 -42 -22 -13 8 -13 14 4 45 26 48 12 57
-23 14 -24 -27 -32 -32 -42 -21 -11 10 -10 18 4 41 36 61 15 69 -25 10z"/>
<path d="M1396 2973 c-11 -12 -6 -20 20 -32 23 -10 26 -16 20 -44 -9 -44 -19
-51 -56 -39 -27 10 -31 9 -28 -5 2 -9 28 -26 63 -39 71 -27 95 -29 95 -9 0 8
-6 15 -13 15 -7 0 -21 6 -30 13 -14 10 -15 18 -7 49 10 35 12 36 42 27 40 -11
60 4 28 21 -37 20 -128 49 -134 43z"/>
<path d="M3440 2945 c0 -8 7 -15 15 -15 15 0 45 -49 45 -74 0 -8 -6 -16 -12
-19 -10 -3 -10 -7 -1 -17 17 -19 135 84 131 114 -3 19 -10 21 -90 24 -74 2
-88 0 -88 -13z m130 -40 c-27 -29 -45 -32 -54 -9 -11 29 -6 34 36 34 l41 0
-23 -25z"/>
<path d="M3571 2713 l-53 -4 7 -47 c3 -26 13 -57 20 -69 21 -31 68 -39 105
-16 34 20 43 42 38 99 -3 44 -7 45 -117 37z m89 -63 c0 -40 -18 -60 -54 -60
-24 0 -56 37 -56 64 0 20 6 25 33 29 79 10 77 10 77 -33z"/>
<path d="M1306 2654 c-9 -69 -8 -84 9 -84 9 0 15 9 15 21 0 20 3 21 70 14 60
-6 70 -5 70 9 0 15 -25 22 -95 28 -24 3 -31 8 -33 31 -5 44 -29 32 -36 -19z"/>
<path d="M1507 2073 c-4 -3 -7 -19 -7 -35 0 -34 -17 -37 -30 -5 -9 22 -9 22
-9 1 -1 -12 6 -27 14 -34 23 -19 45 -4 45 30 0 16 5 30 10 30 6 0 10 -9 10
-20 0 -11 5 -20 10 -20 13 0 13 16 0 41 -11 19 -31 25 -43 12z"/>
<path d="M3450 2065 c-13 -16 -10 -47 6 -52 6 -2 21 6 33 17 28 23 45 17 30
-11 -6 -12 -8 -23 -5 -26 3 -3 10 7 16 22 9 23 8 32 -4 44 -14 13 -18 13 -39
-7 -26 -25 -42 -19 -26 9 12 23 6 25 -11 4z"/>
<path d="M1563 1920 c-17 -7 -23 -18 -23 -38 0 -30 25 -61 38 -48 4 4 -1 12
-11 17 -21 12 -22 32 -2 49 20 16 55 3 55 -21 0 -11 5 -17 10 -14 15 9 12 23
-10 45 -22 22 -25 23 -57 10z"/>
<path d="M3370 1911 c-5 -11 -10 -24 -10 -29 0 -13 68 -48 76 -39 4 4 2 7 -4
7 -25 0 -11 29 16 32 25 4 25 5 7 13 -11 5 -24 14 -28 22 -12 19 -45 16 -57
-6z m40 -16 c0 -8 -7 -15 -15 -15 -16 0 -20 12 -8 23 11 12 23 8 23 -8z"/>
<path d="M1661 1769 c-33 -28 -38 -56 -6 -29 13 11 18 10 30 -6 8 -12 10 -23
4 -28 -11 -12 -12 -26 -1 -26 13 1 65 51 58 57 -3 3 -12 0 -20 -6 -20 -17 -51
26 -34 46 21 26 2 21 -31 -8z"/>
<path d="M3277 1772 c-22 -24 -21 -45 1 -65 24 -22 45 -21 65 1 21 23 22 46 1
66 -21 21 -47 20 -67 -2z m51 -4 c7 -7 12 -23 12 -36 0 -20 -4 -23 -27 -20
-21 2 -29 9 -31 27 -5 34 23 52 46 29z"/>
<path d="M3170 1664 c1 -17 59 -80 60 -63 0 8 -13 28 -30 44 -16 16 -30 25
-30 19z"/>
<path d="M1787 1643 c-9 -9 -9 -55 1 -69 4 -6 16 -14 26 -17 39 -15 74 51 44
81 -13 13 -60 16 -71 5z m62 -22 c13 -24 -8 -55 -35 -49 -23 4 -30 33 -14 53
17 20 37 19 49 -4z"/>
<path d="M3052 1578 c-17 -17 -15 -29 13 -63 23 -29 24 -29 25 -7 0 19 4 22
28 16 25 -6 25 -5 9 8 -10 7 -18 18 -17 23 7 35 -31 50 -58 23z m44 -27 c-10
-16 -36 -13 -36 3 0 17 21 27 34 16 4 -5 5 -13 2 -19z"/>
<path d="M1943 1525 c-27 -41 -28 -51 -7 -59 25 -10 41 -6 22 5 -17 9 -17 12
-2 40 22 44 13 54 -13 14z"/>
<path d="M2907 1498 c-16 -12 -16 -16 -1 -55 9 -23 20 -40 25 -37 4 2 6 11 2
19 -6 18 18 20 34 4 8 -8 13 -8 17 0 4 6 2 11 -3 11 -6 0 -11 9 -11 19 0 49
-27 65 -63 39z m44 -23 c0 -5 -9 -11 -21 -13 -20 -3 -27 8 -13 22 10 9 34 3
34 -9z"/>
<path d="M2087 1450 c-33 -36 -33 -40 -5 -40 12 0 30 -7 40 -17 17 -15 18 -14
18 35 0 61 -14 67 -53 22z m43 -10 c0 -11 -7 -20 -15 -20 -15 0 -21 21 -8 33
12 13 23 7 23 -13z"/>
<path d="M2757 1443 c-12 -20 -18 -93 -8 -93 5 0 13 5 17 11 3 6 19 9 35 7 16
-3 29 -2 29 1 0 3 -12 22 -26 43 -26 37 -38 45 -47 31z m28 -41 c0 -18 -20
-15 -23 4 -3 10 1 15 10 12 7 -3 13 -10 13 -16z"/>
<path d="M2246 1409 c-3 -17 -6 -39 -6 -48 1 -13 3 -13 12 3 10 18 11 18 29
-5 l19 -24 0 23 c0 12 5 22 10 22 22 0 9 41 -16 50 -37 15 -41 13 -48 -21z
m49 0 c10 -15 -1 -23 -20 -15 -9 3 -13 10 -10 16 8 13 22 13 30 -1z"/>
<path d="M2628 1414 c-5 -4 -8 -18 -8 -30 0 -35 -17 -38 -24 -4 -7 39 -22 38
-31 -2 l-7 -33 -14 34 c-20 45 -28 33 -13 -18 13 -45 39 -56 39 -16 0 33 18
32 26 0 8 -34 26 -27 37 14 9 36 6 67 -5 55z"/>
</g>
</svg>
